<svg xmlns="http://www.w3.org/2000/svg" xmlns:xlink="http://www.w3.org/1999/xlink" version="1.1" viewBox="0 0 390 104" width="390" height="104">
	<!-- Remove background, keep only logo and text -->
	<g transform="scale(0.25) translate(0, 0)">
		<g id="logo-icon" transform="matrix(0.2910276722837991,0,0,0.2910276722837991,6.097971009210216,-1.829117479810488)" fill="currentColor">
			<g xmlns="http://www.w3.org/2000/svg">
				<g>
					<defs>
						<rect id="b" x="7" y="6.5" width="286" height="287.1"></rect>
					</defs>
					<clipPath id="a">
						<use xmlns:xlink="http://www.w3.org/1999/xlink" xlink:href="#b" overflow="visible"></use>
					</clipPath>
					<g style="clip-path: url(#a)">
						<path d="M150,198.8c26.1,0,47.2,21.2,47.2,47.4s-21.1,47.4-47.2,47.4s-47.2-21.2-47.2-47.4S123.9,198.8,150,198.8z"></path>
						<path d="M198.7,152.9c-0.1-1.1-0.1-2.2-0.1-3.3c0.1-12.4-4.5-24.4-13.3-33.2l-2-2c-8.7-8.7-20.5-13.4-32.8-13.3c-0.2,0-0.5,0-0.7,0s-0.5,0-0.7,0c-12.3-0.2-24.1,4.6-32.8,13.3l-2,2c-8.8,8.8-13.3,20.8-13.3,33.2c0,1.1,0,2.2-0.1,3.3c-1.3,23.3-19.8,42.4-43.1,44.3c-29.3,2.5-53.5-21.9-51.1-51.3c1.9-23.3,21-41.8,44.1-43.2c1-0.1,2.2-0.1,3.2-0.1c12.4,0.1,24.3-4.5,33.1-13.3l2-2c8.8-8.8,13.3-20.8,13.3-33.2c0-1.6,0.1-3.3,0.2-4.9c2.1-22.9,20.8-41.1,43.7-42.8C174,4.5,197,26.4,197,53.6c0,0.2,0,0.5,0,0.7c-0.2,12.3,4.6,24.2,13.3,32.9l2,2c8.8,8.8,20.7,13.4,33.1,13.3c1,0,2.1,0,3.2,0.1c23.3,1.3,42.2,19.9,44.1,43.2c2.5,29.4-21.8,53.7-51.1,51.3C218.5,195.3,200.1,176.1,198.7,152.9z"></path>
					</g>
				</g>
			</g>
		</g>
		<g id="logo-text" transform="matrix(3.0497104584689936,0,0,3.0497104584689936,102.20707603699,-2.444341728372656)" fill="currentColor">
			<path d="M11.96 5.72 l0 2.64 l-4.28 0 l0 11.64 l-3.14 0 l0 -11.64 l-4.28 0 l0 -2.64 l11.7 0 z M16.14 5.72 l0 5.38 l0.06 0 c0.32 -0.53334 0.75334 -0.95334 1.3 -1.26 s1.12666 -0.46 1.74 -0.46 c1.32 0 2.27666 0.33334 2.87 1 s0.89 1.72 0.89 3.16 l0 6.46 l-2.84 0 l0 -5.88 c0 -0.84 -0.13666 -1.46666 -0.41 -1.88 s-0.74334 -0.62 -1.41 -0.62 c-0.76 0 -1.31666 0.23 -1.67 0.69 s-0.53 1.21666 -0.53 2.27 l0 5.42 l-2.84 0 l0 -14.28 l2.84 0 z M28 9.66 l0 5.85996 c0 0.8 0.12666 1.42 0.38 1.86 s0.73334 0.66 1.44 0.66 c0.78666 0 1.35 -0.23334 1.69 -0.7 s0.51 -1.21332 0.51 -2.23998 l0 -5.44 l2.84 0 l0 10.34 l-2.7 0 l0 -1.44 l-0.06 0 c-0.70666 1.14666 -1.76666 1.72 -3.18 1.72 c-1.34666 0 -2.31 -0.34334 -2.89 -1.03 s-0.87 -1.74332 -0.87 -3.16998 l0 -6.42 l2.84 0 z M43.06 9.38 c0.24 0 0.44668 0.03334 0.62002 0.1 l0 2.64 c-0.30666 -0.06666 -0.64666 -0.1 -1.02 -0.1 c-1.86666 0 -2.8 1.10666 -2.8 3.32 l0 4.66 l-2.84 0 l0 -10.34 l2.7 0 l0 1.92 l0.04 0 c0.28 -0.66666 0.72334 -1.2 1.33 -1.6 s1.26332 -0.6 1.96998 -0.6 z M47.72 5.72 l0 2.34 l-2.84 0 l0 -2.34 l2.84 0 z M47.72 9.66 l0 10.34 l-2.84 0 l0 -10.34 l2.84 0 z M51.8 9.66 l2.34002 7.08 l0.04 0 l2.26 -7.08 l2.94 0 l-4.32 11.64 c-0.30666 0.81334 -0.73 1.40668 -1.27 1.78002 s-1.29 0.56 -2.25 0.56 c-0.41334 0 -1.00668 -0.03334 -1.78002 -0.1 l0 -2.34 c0.50666 0.06666 1.00666 0.1 1.5 0.1 c0.4 0 0.71 -0.12334 0.93 -0.37 s0.33 -0.55666 0.33 -0.93 c0 -0.21334 -0.04 -0.42668 -0.12 -0.64002 l-3.64 -9.7 l3.04 0 z M65.1 9.38 c3.01334 0.01334 4.52 0.9933 4.52 2.93996 l0 5.48 c0 1.01334 0.12 1.74668 0.36 2.20002 l-2.88 0 c-0.10666 -0.32 -0.17332 -0.65334 -0.19998 -1 c-0.84 0.85334 -2 1.28 -3.48 1.28 c-1.08 0 -1.93666 -0.27334 -2.57 -0.82 s-0.95 -1.30666 -0.95 -2.28 c0 -0.94666 0.3 -1.68 0.9 -2.2 c0.61334 -0.54666 1.72668 -0.89332 3.34002 -1.03998 c1.14666 -0.12 1.87332 -0.27 2.17998 -0.45 s0.46 -0.45666 0.46 -0.83 c0 -0.46666 -0.14 -0.81332 -0.42 -1.03998 s-0.74666 -0.34 -1.4 -0.34 c-0.6 0 -1.05334 0.12334 -1.36 0.37 s-0.48666 0.64332 -0.54 1.18998 l-2.84 0 c0.06666 -1.13334 0.53332 -1.99334 1.39998 -2.58 s2.02666 -0.88 3.48 -0.88 z M62.74 17.05996 c0 0.88 0.58 1.32 1.74 1.32 c1.52 -0.01334 2.28666 -0.79334 2.3 -2.34 l0 -1.1 c-0.22666 0.22666 -0.8 0.39332 -1.72 0.49998 c-0.8 0.09334 -1.38666 0.25668 -1.76 0.49002 s-0.56 0.61 -0.56 1.13 z M77.78 9.38 c1.50666 0 2.51336 0.57332 3.02002 1.71998 c0.78666 -1.14666 1.83332 -1.72 3.13998 -1.72 c1.29334 0 2.24334 0.32666 2.85 0.98 s0.91 1.55334 0.91 2.7 l0 6.94 l-2.84 0 l0 -5.98 c0 -0.90666 -0.13666 -1.53332 -0.41 -1.87998 s-0.71668 -0.52 -1.33002 -0.52 c-1.26666 0 -1.9 0.86666 -1.9 2.6 l0 5.78 l-2.84 0 l0 -6.1 c0 -0.88 -0.14 -1.48 -0.42 -1.8 s-0.71334 -0.48 -1.3 -0.48 c-0.54666 0 -1.00332 0.21666 -1.36998 0.65 s-0.55 1.00334 -0.55 1.71 l0 6.02 l-2.84 0 l0 -10.34 l2.68 0 l0 1.4 l0.04 0 c0.78666 -1.12 1.84 -1.68 3.16 -1.68 z"></path>
		</g>
	</g>
</svg>
